Normalized EMG Linear Envelopes
nRows=200
nColumns=4

endheader
time	 med_gas_r	  soleus_r	 tib_ant_r	
4.3246	  0.013645	  0.029994	  0.001919	
4.35786	  0.014104	  0.030684	  0.002068	
4.39113	  0.014342	  0.031543	  0.002260	
4.4244	  0.014285	  0.032468	  0.002478	
4.45766	  0.014026	  0.033349	  0.002690	
4.49093	  0.013760	  0.034040	  0.002857	
4.52419	  0.013522	  0.034375	  0.002922	
4.55746	  0.013343	  0.034413	  0.002808	
4.59073	  0.013303	  0.034277	  0.002417	
4.62399	  0.013342	  0.034069	  0.001627	
4.65726	  0.013373	  0.033634	  0.000306	
4.69052	  0.013471	  0.032854	 -0.001671	
4.72379	  0.013695	  0.031552	 -0.004385	
4.75706	  0.013932	  0.029569	 -0.007812	
4.79032	  0.013956	  0.026997	 -0.011736	
4.82359	  0.013590	  0.023984	 -0.015650	
4.85685	  0.012920	  0.020788	 -0.018645	
4.89012	  0.012180	  0.017940	 -0.019290	
4.92339	  0.011531	  0.016375	 -0.015568	
4.95665	  0.011155	  0.017248	 -0.004859	
4.98992	  0.011272	  0.021825	  0.015936	
5.02319	  0.012056	  0.031564	  0.050060	
5.05645	  0.013630	  0.048106	  0.100265	
5.08972	  0.016145	  0.073068	  0.167806	
5.12298	  0.019698	  0.107572	  0.250961	
5.15625	  0.024100	  0.151407	  0.343288	
5.18952	  0.028955	  0.202108	  0.434594	
5.22278	  0.033930	  0.254473	  0.517624	
5.25605	  0.038732	  0.301486	  0.589972	
5.28931	  0.043126	  0.336346	  0.649860	
5.32258	  0.046908	  0.355946	  0.696845	
5.35585	  0.049928	  0.362834	  0.731140	
5.38911	  0.052027	  0.360822	  0.755394	
5.42238	  0.053032	  0.354063	  0.775187	
5.45565	  0.052896	  0.345975	  0.792979	
5.48891	  0.051821	  0.338301	  0.809892	
5.52218	  0.050215	  0.330412	  0.826166	
5.55544	  0.048437	  0.322364	  0.839513	
5.58871	  0.046606	  0.314082	  0.848877	
5.62198	  0.044936	  0.305210	  0.856030	
5.65524	  0.043687	  0.295061	  0.862141	
5.68851	  0.042991	  0.285848	  0.868366	
5.72177	  0.042891	  0.278638	  0.875138	
5.75504	  0.043352	  0.271471	  0.881088	
5.78831	  0.044217	  0.263501	  0.883795	
5.82157	  0.045235	  0.255983	  0.880723	
5.85484	  0.046174	  0.250919	  0.870739	
5.8881	  0.046781	  0.250315	  0.857281	
5.92137	  0.047073	  0.254468	  0.845966	
5.95464	  0.047123	  0.261508	  0.837739	
5.9879	  0.046864	  0.268537	  0.830470	
6.02117	  0.046148	  0.273581	  0.824627	
6.05444	  0.044879	  0.274678	  0.819868	
6.0877	  0.043312	  0.271086	  0.815249	
6.12097	  0.041828	  0.264425	  0.809240	
6.15423	  0.040583	  0.257378	  0.797094	
6.1875	  0.039659	  0.251817	  0.775754	
6.22077	  0.039117	  0.248742	  0.749111	
6.25403	  0.038886	  0.247878	  0.722022	
6.2873	  0.038780	  0.248169	  0.695448	
6.32056	  0.038685	  0.247238	  0.669736	
6.35383	  0.038695	  0.243005	  0.646832	
6.3871	  0.039112	  0.236675	  0.629716	
6.42036	  0.040055	  0.231511	  0.621112	
6.45363	  0.041357	  0.229424	  0.623638	
6.4869	  0.042800	  0.231511	  0.638257	
6.52016	  0.044232	  0.239716	  0.662919	
6.55343	  0.045491	  0.254484	  0.691745	
6.58669	  0.046774	  0.273947	  0.723436	
6.61996	  0.048223	  0.296109	  0.756999	
6.65323	  0.049692	  0.317909	  0.788195	
6.68649	  0.050911	  0.335133	  0.814862	
6.71976	  0.051609	  0.345121	  0.835706	
6.75302	  0.051718	  0.347821	  0.850480	
6.78629	  0.051494	  0.343408	  0.859323	
6.81956	  0.051266	  0.331789	  0.862039	
6.85282	  0.051299	  0.313303	  0.858082	
6.88609	  0.051677	  0.290715	  0.848996	
6.91935	  0.052349	  0.268142	  0.838102	
6.95262	  0.053338	  0.248421	  0.829782	
6.98589	  0.054760	  0.233823	  0.824845	
7.01915	  0.056337	  0.225330	  0.823037	
7.05242	  0.057468	  0.222845	  0.823307	
7.08569	  0.057905	  0.226396	  0.824786	
7.11895	  0.057609	  0.235829	  0.828611	
7.15222	  0.056617	  0.250247	  0.834407	
7.18548	  0.055218	  0.268374	  0.840814	
7.21875	  0.053698	  0.288125	  0.845955	
7.25202	  0.052362	  0.307764	  0.848261	
7.28528	  0.051315	  0.328451	  0.849671	
7.31855	  0.050468	  0.349473	  0.853072	
7.35181	  0.049822	  0.368401	  0.858732	
7.38508	  0.049341	  0.382186	  0.862815	
7.41835	  0.048786	  0.388181	  0.860099	
7.45161	  0.048041	  0.386357	  0.849598	
7.48488	  0.047063	  0.378570	  0.832863	
7.51815	  0.045993	  0.369248	  0.813051	
7.55141	  0.045023	  0.363249	  0.795087	
7.58468	  0.044276	  0.362883	  0.782644	
7.61794	  0.043709	  0.368808	  0.775116	
7.65121	  0.043270	  0.378596	  0.771711	
7.68448	  0.042880	  0.388392	  0.772156	
7.71774	  0.042436	  0.396060	  0.775449	
7.75101	  0.041990	  0.402555	  0.780092	
7.78427	  0.041687	  0.408316	  0.788715	
7.81754	  0.041525	  0.411056	  0.800570	
7.85081	  0.041394	  0.409341	  0.813490	
7.88407	  0.041172	  0.400238	  0.823711	
7.91734	  0.040828	  0.382214	  0.828530	
7.9506	  0.040404	  0.356928	  0.824084	
7.98387	  0.039860	  0.328331	  0.810097	
8.01714	  0.039137	  0.300603	  0.788364	
8.0504	  0.038288	  0.276261	  0.761202	
8.08367	  0.037376	  0.254143	  0.730082	
8.11694	  0.036717	  0.232796	  0.696648	
8.1502	  0.036580	  0.214510	  0.663281	
8.18347	  0.037026	  0.202535	  0.632609	
8.21673	  0.037988	  0.197966	  0.608110	
8.25	  0.039317	  0.199757	  0.596646	
8.28327	  0.040796	  0.204718	  0.600934	
8.31653	  0.042321	  0.210099	  0.621132	
8.3498	  0.043605	  0.215582	  0.653927	
8.38306	  0.044302	  0.222673	  0.692976	
8.41633	  0.044574	  0.233126	  0.735432	
8.4496	  0.044560	  0.246381	  0.778723	
8.48286	  0.044313	  0.259991	  0.818916	
8.51613	  0.043910	  0.274433	  0.851873	
8.5494	  0.043313	  0.289428	  0.871617	
8.58266	  0.042586	  0.302572	  0.875838	
8.61593	  0.041954	  0.311747	  0.863903	
8.64919	  0.041770	  0.315895	  0.839317	
8.68246	  0.042183	  0.314855	  0.809518	
8.71573	  0.043077	  0.309187	  0.781084	
8.74899	  0.044107	  0.299068	  0.755719	
8.78226	  0.044922	  0.285555	  0.734143	
8.81552	  0.045276	  0.270983	  0.717200	
8.84879	  0.045260	  0.257316	  0.706543	
8.88206	  0.044941	  0.246248	  0.703508	
8.91532	  0.044328	  0.238598	  0.706913	
8.94859	  0.043544	  0.233292	  0.713910	
8.98185	  0.042696	  0.229533	  0.719005	
9.01512	  0.041810	  0.229341	  0.718478	
9.04839	  0.040843	  0.234144	  0.712455	
9.08165	  0.039669	  0.243233	  0.702321	
9.11492	  0.038404	  0.253908	  0.690569	
9.14819	  0.037208	  0.262351	  0.679680	
9.18145	  0.036285	  0.267213	  0.671633	
9.21472	  0.035711	  0.269703	  0.666945	
9.24798	  0.035427	  0.271586	  0.664605	
9.28125	  0.035267	  0.276792	  0.663927	
9.31452	  0.035182	  0.290024	  0.665739	
9.34778	  0.035131	  0.313384	  0.668337	
9.38105	  0.035145	  0.346616	  0.669538	
9.41431	  0.035286	  0.386935	  0.666432	
9.44758	  0.035598	  0.427686	  0.657784	
9.48085	  0.035928	  0.461557	  0.642392	
9.51411	  0.036037	  0.484224	  0.618785	
9.54738	  0.035829	  0.491553	  0.585952	
9.58065	  0.035349	  0.480266	  0.546443	
9.61391	  0.034399	  0.451304	  0.505621	
9.64718	  0.032985	  0.408050	  0.468871	
9.68044	  0.031245	  0.355049	  0.437963	
9.71371	  0.029511	  0.297710	  0.412895	
9.74698	  0.027984	  0.240882	  0.391306	
9.78024	  0.026739	  0.188875	  0.370475	
9.81351	  0.025653	  0.145868	  0.350423	
9.84677	  0.024579	  0.113783	  0.333648	
9.88004	  0.023569	  0.092503	  0.321442	
9.91331	  0.022733	  0.080800	  0.314463	
9.94657	  0.022011	  0.076393	  0.310183	
9.97984	  0.021306	  0.076375	  0.305216	
10.0131	  0.020503	  0.078509	  0.297584	
10.0464	  0.019591	  0.081436	  0.287685	
10.0796	  0.018655	  0.083943	  0.274583	
10.1129	  0.017704	  0.084774	  0.258701	
10.1462	  0.016777	  0.083600	  0.242252	
10.1794	  0.015978	  0.080909	  0.226631	
10.2127	  0.015365	  0.077277	  0.212124	
10.246	  0.014977	  0.073142	  0.199747	
10.2792	  0.014783	  0.068845	  0.189241	
10.3125	  0.014691	  0.065114	  0.180077	
10.3458	  0.014611	  0.062241	  0.171559	
10.379	  0.014514	  0.060148	  0.164174	
10.4123	  0.014435	  0.058721	  0.159318	
10.4456	  0.014449	  0.057870	  0.156786	
10.4788	  0.014573	  0.057374	  0.155493	
10.5121	  0.014778	  0.057401	  0.156043	
10.5454	  0.014952	  0.058013	  0.157583	
10.5786	  0.015014	  0.059199	  0.158803	
10.6119	  0.014960	  0.060542	  0.158813	
10.6452	  0.014785	  0.061473	  0.157158	
10.6784	  0.014537	  0.061725	  0.153207	
10.7117	  0.014319	  0.061365	  0.147254	
10.745	  0.014205	  0.060658	  0.139962	
10.7782	  0.014204	  0.059882	  0.131571	
10.8115	  0.014316	  0.059129	  0.122221	
10.8448	  0.014501	  0.058219	  0.112211	
10.878	  0.014649	  0.056937	  0.101769	
10.9113	  0.014648	  0.055541	  0.092530	
10.9446	  0.014410	  0.054543	  0.085551	
